<svg xmlns="http://www.w3.org/2000/svg" xmlns:xlink="http://www.w3.org/1999/xlink" width="300" zoomAndPan="magnify" viewBox="0 0 224.87999 44.999999" height="60" preserveAspectRatio="xMidYMid meet" version="1.0"><defs><g/><clipPath id="7e6294cd93"><path d="M 0 0.0117188 L 36 0.0117188 L 36 44.238281 L 0 44.238281 Z M 0 0.0117188 " clip-rule="nonzero"/></clipPath><clipPath id="8b8ddec80e"><path d="M 25 16 L 42.726562 16 L 42.726562 44.238281 L 25 44.238281 Z M 25 16 " clip-rule="nonzero"/></clipPath><clipPath id="c7d0667c7d"><rect x="0" width="167" y="0" height="31"/></clipPath></defs><g clip-path="url(#7e6294cd93)"><path fill="#7b2ff7" d="M 7.679688 44.121094 L 14.578125 27.214844 L 21.5 35.875 L 32.507812 11.5625 L 35.082031 12.726562 L 33.828125 0.0273438 L 23.457031 7.460938 L 26.03125 8.628906 L 19.808594 22.371094 L 12.570312 13.320312 L 0 44.121094 L 7.679688 44.121094 " fill-opacity="1" fill-rule="nonzero"/></g><g clip-path="url(#8b8ddec80e)"><path fill="#ffffff" d="M 35.28125 44.121094 L 42.960938 44.121094 L 31.800781 16.777344 L 25.359375 30.996094 L 28.382812 27.214844 L 35.28125 44.121094 " fill-opacity="1" fill-rule="nonzero"/></g><g transform="matrix(1, 0, 0, 1, 53, 9)"><g clip-path="url(#c7d0667c7d)"><g fill="#ffffff" fill-opacity="1"><g transform="translate(0.5405, 23.523087)"><g><path d="M 1.5625 0 L 1.5625 -17.984375 L 7.171875 -17.984375 L 10.09375 -9.703125 C 10.207031 -9.316406 10.34375 -8.820312 10.5 -8.21875 C 10.664062 -7.625 10.832031 -6.984375 11 -6.296875 C 11.164062 -5.617188 11.316406 -4.957031 11.453125 -4.3125 C 11.597656 -3.675781 11.71875 -3.125 11.8125 -2.65625 L 11.046875 -2.65625 C 11.140625 -3.113281 11.253906 -3.660156 11.390625 -4.296875 C 11.535156 -4.929688 11.691406 -5.59375 11.859375 -6.28125 C 12.023438 -6.96875 12.1875 -7.613281 12.34375 -8.21875 C 12.5 -8.820312 12.640625 -9.316406 12.765625 -9.703125 L 15.640625 -17.984375 L 21.265625 -17.984375 L 21.265625 0 L 17.578125 0 L 17.578125 -8.5 C 17.578125 -8.894531 17.582031 -9.378906 17.59375 -9.953125 C 17.601562 -10.535156 17.617188 -11.160156 17.640625 -11.828125 C 17.660156 -12.492188 17.675781 -13.164062 17.6875 -13.84375 C 17.707031 -14.53125 17.722656 -15.175781 17.734375 -15.78125 L 18.015625 -15.78125 C 17.847656 -15.113281 17.671875 -14.429688 17.484375 -13.734375 C 17.296875 -13.035156 17.101562 -12.351562 16.90625 -11.6875 C 16.71875 -11.019531 16.539062 -10.410156 16.375 -9.859375 C 16.21875 -9.316406 16.078125 -8.863281 15.953125 -8.5 L 12.96875 0 L 9.875 0 L 6.84375 -8.5 C 6.71875 -8.863281 6.570312 -9.316406 6.40625 -9.859375 C 6.238281 -10.410156 6.054688 -11.015625 5.859375 -11.671875 C 5.671875 -12.328125 5.476562 -13.003906 5.28125 -13.703125 C 5.09375 -14.410156 4.910156 -15.101562 4.734375 -15.78125 L 5.0625 -15.78125 C 5.070312 -15.195312 5.082031 -14.566406 5.09375 -13.890625 C 5.113281 -13.210938 5.128906 -12.535156 5.140625 -11.859375 C 5.160156 -11.179688 5.175781 -10.550781 5.1875 -9.96875 C 5.207031 -9.382812 5.21875 -8.894531 5.21875 -8.5 L 5.21875 0 Z M 1.5625 0 "/></g></g></g><g fill="#ffffff" fill-opacity="1"><g transform="translate(23.357328, 23.523087)"><g><path d="M 5.28125 0.25 C 4.425781 0.25 3.660156 0.101562 2.984375 -0.1875 C 2.304688 -0.488281 1.773438 -0.929688 1.390625 -1.515625 C 1.003906 -2.109375 0.8125 -2.847656 0.8125 -3.734375 C 0.8125 -4.484375 0.945312 -5.101562 1.21875 -5.59375 C 1.488281 -6.09375 1.859375 -6.492188 2.328125 -6.796875 C 2.804688 -7.109375 3.347656 -7.34375 3.953125 -7.5 C 4.566406 -7.65625 5.207031 -7.765625 5.875 -7.828125 C 6.65625 -7.910156 7.28125 -7.984375 7.75 -8.046875 C 8.226562 -8.117188 8.578125 -8.226562 8.796875 -8.375 C 9.015625 -8.519531 9.125 -8.738281 9.125 -9.03125 L 9.125 -9.09375 C 9.125 -9.457031 9.039062 -9.769531 8.875 -10.03125 C 8.707031 -10.289062 8.46875 -10.488281 8.15625 -10.625 C 7.84375 -10.769531 7.460938 -10.84375 7.015625 -10.84375 C 6.554688 -10.84375 6.15625 -10.769531 5.8125 -10.625 C 5.46875 -10.488281 5.1875 -10.300781 4.96875 -10.0625 C 4.757812 -9.832031 4.613281 -9.566406 4.53125 -9.265625 L 1.203125 -9.6875 C 1.390625 -10.5 1.742188 -11.1875 2.265625 -11.75 C 2.785156 -12.320312 3.453125 -12.757812 4.265625 -13.0625 C 5.078125 -13.363281 6.003906 -13.515625 7.046875 -13.515625 C 7.804688 -13.515625 8.523438 -13.425781 9.203125 -13.25 C 9.878906 -13.070312 10.484375 -12.796875 11.015625 -12.421875 C 11.546875 -12.054688 11.960938 -11.585938 12.265625 -11.015625 C 12.566406 -10.453125 12.71875 -9.773438 12.71875 -8.984375 L 12.71875 0 L 9.28125 0 L 9.28125 -1.859375 L 9.171875 -1.859375 C 8.953125 -1.441406 8.660156 -1.070312 8.296875 -0.75 C 7.941406 -0.4375 7.515625 -0.191406 7.015625 -0.015625 C 6.523438 0.160156 5.945312 0.25 5.28125 0.25 Z M 6.28125 -2.265625 C 6.851562 -2.265625 7.351562 -2.375 7.78125 -2.59375 C 8.207031 -2.820312 8.539062 -3.125 8.78125 -3.5 C 9.03125 -3.882812 9.15625 -4.316406 9.15625 -4.796875 L 9.15625 -6.203125 C 9.039062 -6.140625 8.878906 -6.078125 8.671875 -6.015625 C 8.472656 -5.953125 8.242188 -5.894531 7.984375 -5.84375 C 7.734375 -5.789062 7.472656 -5.742188 7.203125 -5.703125 C 6.941406 -5.671875 6.707031 -5.632812 6.5 -5.59375 C 6.0625 -5.53125 5.671875 -5.425781 5.328125 -5.28125 C 4.992188 -5.144531 4.734375 -4.957031 4.546875 -4.71875 C 4.359375 -4.488281 4.265625 -4.195312 4.265625 -3.84375 C 4.265625 -3.5 4.351562 -3.207031 4.53125 -2.96875 C 4.707031 -2.738281 4.945312 -2.5625 5.25 -2.4375 C 5.550781 -2.320312 5.894531 -2.265625 6.28125 -2.265625 Z M 6.28125 -2.265625 "/></g></g></g><g fill="#ffffff" fill-opacity="1"><g transform="translate(37.546954, 23.523087)"><g><path d="M 6.421875 0.234375 C 5.367188 0.234375 4.425781 -0.0351562 3.59375 -0.578125 C 2.769531 -1.117188 2.117188 -1.898438 1.640625 -2.921875 C 1.160156 -3.941406 0.921875 -5.1875 0.921875 -6.65625 C 0.921875 -8.144531 1.164062 -9.394531 1.65625 -10.40625 C 2.144531 -11.425781 2.800781 -12.195312 3.625 -12.71875 C 4.457031 -13.25 5.378906 -13.515625 6.390625 -13.515625 C 7.109375 -13.515625 7.71875 -13.394531 8.21875 -13.15625 C 8.71875 -12.925781 9.128906 -12.632812 9.453125 -12.28125 C 9.785156 -11.925781 10.039062 -11.554688 10.21875 -11.171875 L 10.3125 -11.171875 L 10.3125 -17.984375 L 13.921875 -17.984375 L 13.921875 0 L 10.375 0 L 10.375 -2.109375 L 10.234375 -2.109375 C 10.046875 -1.722656 9.785156 -1.347656 9.453125 -0.984375 C 9.117188 -0.628906 8.703125 -0.335938 8.203125 -0.109375 C 7.710938 0.117188 7.117188 0.234375 6.421875 0.234375 Z M 7.484375 -2.671875 C 8.097656 -2.671875 8.625 -2.835938 9.0625 -3.171875 C 9.5 -3.503906 9.832031 -3.96875 10.0625 -4.5625 C 10.300781 -5.15625 10.421875 -5.851562 10.421875 -6.65625 C 10.421875 -7.46875 10.304688 -8.164062 10.078125 -8.75 C 9.847656 -9.34375 9.507812 -9.800781 9.0625 -10.125 C 8.625 -10.457031 8.097656 -10.625 7.484375 -10.625 C 6.867188 -10.625 6.347656 -10.457031 5.921875 -10.125 C 5.492188 -9.789062 5.164062 -9.328125 4.9375 -8.734375 C 4.71875 -8.140625 4.609375 -7.445312 4.609375 -6.65625 C 4.609375 -5.863281 4.71875 -5.164062 4.9375 -4.5625 C 5.164062 -3.96875 5.492188 -3.503906 5.921875 -3.171875 C 6.347656 -2.835938 6.867188 -2.671875 7.484375 -2.671875 Z M 7.484375 -2.671875 "/></g></g></g><g fill="#ffffff" fill-opacity="1"><g transform="translate(52.943181, 23.523087)"><g><path d="M 7.515625 0.265625 C 6.160156 0.265625 4.988281 -0.015625 4 -0.578125 C 3.007812 -1.140625 2.25 -1.9375 1.71875 -2.96875 C 1.1875 -4 0.921875 -5.210938 0.921875 -6.609375 C 0.921875 -7.984375 1.1875 -9.1875 1.71875 -10.21875 C 2.25 -11.25 2.992188 -12.054688 3.953125 -12.640625 C 4.921875 -13.222656 6.050781 -13.515625 7.34375 -13.515625 C 8.238281 -13.515625 9.066406 -13.367188 9.828125 -13.078125 C 10.597656 -12.796875 11.269531 -12.367188 11.84375 -11.796875 C 12.414062 -11.234375 12.859375 -10.523438 13.171875 -9.671875 C 13.492188 -8.828125 13.65625 -7.847656 13.65625 -6.734375 L 13.65625 -5.734375 L 2.359375 -5.734375 L 2.359375 -8 L 11.90625 -8 L 10.234375 -7.40625 C 10.234375 -8.101562 10.125 -8.703125 9.90625 -9.203125 C 9.6875 -9.710938 9.363281 -10.101562 8.9375 -10.375 C 8.519531 -10.65625 8.003906 -10.796875 7.390625 -10.796875 C 6.765625 -10.796875 6.234375 -10.65625 5.796875 -10.375 C 5.367188 -10.09375 5.039062 -9.707031 4.8125 -9.21875 C 4.582031 -8.726562 4.46875 -8.164062 4.46875 -7.53125 L 4.46875 -5.9375 C 4.46875 -5.1875 4.59375 -4.550781 4.84375 -4.03125 C 5.101562 -3.507812 5.46875 -3.113281 5.9375 -2.84375 C 6.414062 -2.570312 6.96875 -2.4375 7.59375 -2.4375 C 8.019531 -2.4375 8.40625 -2.5 8.75 -2.625 C 9.101562 -2.75 9.398438 -2.929688 9.640625 -3.171875 C 9.890625 -3.410156 10.082031 -3.703125 10.21875 -4.046875 L 13.484375 -3.578125 C 13.273438 -2.796875 12.894531 -2.117188 12.34375 -1.546875 C 11.800781 -0.972656 11.125 -0.523438 10.3125 -0.203125 C 9.5 0.109375 8.566406 0.265625 7.515625 0.265625 Z M 7.515625 0.265625 "/></g></g></g><g fill="#ffffff" fill-opacity="1"><g transform="translate(67.470655, 23.523087)"><g/></g></g><g fill="#ffffff" fill-opacity="1"><g transform="translate(73.202015, 23.523087)"><g><path d="M 0.828125 -14.890625 L 0.828125 -17.984375 L 15.5 -17.984375 L 15.5 -14.890625 L 10.015625 -14.890625 L 10.015625 0 L 6.328125 0 L 6.328125 -14.890625 Z M 0.828125 -14.890625 "/></g></g></g><g fill="#ffffff" fill-opacity="1"><g transform="translate(87.35438, 23.523087)"><g><path d="M 7.5 0.265625 C 6.15625 0.265625 4.988281 -0.0195312 4 -0.59375 C 3.007812 -1.164062 2.25 -1.96875 1.71875 -3 C 1.1875 -4.039062 0.921875 -5.242188 0.921875 -6.609375 C 0.921875 -7.992188 1.1875 -9.203125 1.71875 -10.234375 C 2.25 -11.273438 3.007812 -12.082031 4 -12.65625 C 4.988281 -13.226562 6.15625 -13.515625 7.5 -13.515625 C 8.832031 -13.515625 9.988281 -13.226562 10.96875 -12.65625 C 11.957031 -12.082031 12.71875 -11.273438 13.25 -10.234375 C 13.789062 -9.203125 14.0625 -7.992188 14.0625 -6.609375 C 14.0625 -5.242188 13.789062 -4.039062 13.25 -3 C 12.71875 -1.96875 11.957031 -1.164062 10.96875 -0.59375 C 9.988281 -0.0195312 8.832031 0.265625 7.5 0.265625 Z M 7.5 -2.578125 C 8.125 -2.578125 8.648438 -2.75 9.078125 -3.09375 C 9.515625 -3.445312 9.84375 -3.925781 10.0625 -4.53125 C 10.289062 -5.132812 10.40625 -5.832031 10.40625 -6.625 C 10.40625 -7.425781 10.289062 -8.125 10.0625 -8.71875 C 9.84375 -9.320312 9.515625 -9.796875 9.078125 -10.140625 C 8.648438 -10.492188 8.125 -10.671875 7.5 -10.671875 C 6.863281 -10.671875 6.328125 -10.492188 5.890625 -10.140625 C 5.460938 -9.796875 5.140625 -9.320312 4.921875 -8.71875 C 4.703125 -8.125 4.59375 -7.425781 4.59375 -6.625 C 4.59375 -5.832031 4.703125 -5.132812 4.921875 -4.53125 C 5.140625 -3.925781 5.460938 -3.445312 5.890625 -3.09375 C 6.328125 -2.75 6.863281 -2.578125 7.5 -2.578125 Z M 7.5 -2.578125 "/></g></g></g><g fill="#ffffff" fill-opacity="1"><g transform="translate(102.328303, 23.523087)"><g/></g></g><g fill="#ffffff" fill-opacity="1"><g transform="translate(108.059663, 23.523087)"><g><path d="M 1.5625 0 L 1.5625 -17.984375 L 5.25 -17.984375 L 5.25 -3.09375 L 13.109375 -3.09375 L 13.109375 0 Z M 1.5625 0 "/></g></g></g><g fill="#ffffff" fill-opacity="1"><g transform="translate(121.983837, 23.523087)"><g><path d="M 7.515625 0.265625 C 6.160156 0.265625 4.988281 -0.015625 4 -0.578125 C 3.007812 -1.140625 2.25 -1.9375 1.71875 -2.96875 C 1.1875 -4 0.921875 -5.210938 0.921875 -6.609375 C 0.921875 -7.984375 1.1875 -9.1875 1.71875 -10.21875 C 2.25 -11.25 2.992188 -12.054688 3.953125 -12.640625 C 4.921875 -13.222656 6.050781 -13.515625 7.34375 -13.515625 C 8.238281 -13.515625 9.066406 -13.367188 9.828125 -13.078125 C 10.597656 -12.796875 11.269531 -12.367188 11.84375 -11.796875 C 12.414062 -11.234375 12.859375 -10.523438 13.171875 -9.671875 C 13.492188 -8.828125 13.65625 -7.847656 13.65625 -6.734375 L 13.65625 -5.734375 L 2.359375 -5.734375 L 2.359375 -8 L 11.90625 -8 L 10.234375 -7.40625 C 10.234375 -8.101562 10.125 -8.703125 9.90625 -9.203125 C 9.6875 -9.710938 9.363281 -10.101562 8.9375 -10.375 C 8.519531 -10.65625 8.003906 -10.796875 7.390625 -10.796875 C 6.765625 -10.796875 6.234375 -10.65625 5.796875 -10.375 C 5.367188 -10.09375 5.039062 -9.707031 4.8125 -9.21875 C 4.582031 -8.726562 4.46875 -8.164062 4.46875 -7.53125 L 4.46875 -5.9375 C 4.46875 -5.1875 4.59375 -4.550781 4.84375 -4.03125 C 5.101562 -3.507812 5.46875 -3.113281 5.9375 -2.84375 C 6.414062 -2.570312 6.96875 -2.4375 7.59375 -2.4375 C 8.019531 -2.4375 8.40625 -2.5 8.75 -2.625 C 9.101562 -2.75 9.398438 -2.929688 9.640625 -3.171875 C 9.890625 -3.410156 10.082031 -3.703125 10.21875 -4.046875 L 13.484375 -3.578125 C 13.273438 -2.796875 12.894531 -2.117188 12.34375 -1.546875 C 11.800781 -0.972656 11.125 -0.523438 10.3125 -0.203125 C 9.5 0.109375 8.566406 0.265625 7.515625 0.265625 Z M 7.515625 0.265625 "/></g></g></g><g fill="#ffffff" fill-opacity="1"><g transform="translate(136.740674, 23.523087)"><g><path d="M 5.28125 0.25 C 4.425781 0.25 3.660156 0.101562 2.984375 -0.1875 C 2.304688 -0.488281 1.773438 -0.929688 1.390625 -1.515625 C 1.003906 -2.109375 0.8125 -2.847656 0.8125 -3.734375 C 0.8125 -4.484375 0.945312 -5.101562 1.21875 -5.59375 C 1.488281 -6.09375 1.859375 -6.492188 2.328125 -6.796875 C 2.804688 -7.109375 3.347656 -7.34375 3.953125 -7.5 C 4.566406 -7.65625 5.207031 -7.765625 5.875 -7.828125 C 6.65625 -7.910156 7.28125 -7.984375 7.75 -8.046875 C 8.226562 -8.117188 8.578125 -8.226562 8.796875 -8.375 C 9.015625 -8.519531 9.125 -8.738281 9.125 -9.03125 L 9.125 -9.09375 C 9.125 -9.457031 9.039062 -9.769531 8.875 -10.03125 C 8.707031 -10.289062 8.46875 -10.488281 8.15625 -10.625 C 7.84375 -10.769531 7.460938 -10.84375 7.015625 -10.84375 C 6.554688 -10.84375 6.15625 -10.769531 5.8125 -10.625 C 5.46875 -10.488281 5.1875 -10.300781 4.96875 -10.0625 C 4.757812 -9.832031 4.613281 -9.566406 4.53125 -9.265625 L 1.203125 -9.6875 C 1.390625 -10.5 1.742188 -11.1875 2.265625 -11.75 C 2.785156 -12.320312 3.453125 -12.757812 4.265625 -13.0625 C 5.078125 -13.363281 6.003906 -13.515625 7.046875 -13.515625 C 7.804688 -13.515625 8.523438 -13.425781 9.203125 -13.25 C 9.878906 -13.070312 10.484375 -12.796875 11.015625 -12.421875 C 11.546875 -12.054688 11.960938 -11.585938 12.265625 -11.015625 C 12.566406 -10.453125 12.71875 -9.773438 12.71875 -8.984375 L 12.71875 0 L 9.28125 0 L 9.28125 -1.859375 L 9.171875 -1.859375 C 8.953125 -1.441406 8.660156 -1.070312 8.296875 -0.75 C 7.941406 -0.4375 7.515625 -0.191406 7.015625 -0.015625 C 6.523438 0.160156 5.945312 0.25 5.28125 0.25 Z M 6.28125 -2.265625 C 6.851562 -2.265625 7.351562 -2.375 7.78125 -2.59375 C 8.207031 -2.820312 8.539062 -3.125 8.78125 -3.5 C 9.03125 -3.882812 9.15625 -4.316406 9.15625 -4.796875 L 9.15625 -6.203125 C 9.039062 -6.140625 8.878906 -6.078125 8.671875 -6.015625 C 8.472656 -5.953125 8.242188 -5.894531 7.984375 -5.84375 C 7.734375 -5.789062 7.472656 -5.742188 7.203125 -5.703125 C 6.941406 -5.671875 6.707031 -5.632812 6.5 -5.59375 C 6.0625 -5.53125 5.671875 -5.425781 5.328125 -5.28125 C 4.992188 -5.144531 4.734375 -4.957031 4.546875 -4.71875 C 4.359375 -4.488281 4.265625 -4.195312 4.265625 -3.84375 C 4.265625 -3.5 4.351562 -3.207031 4.53125 -2.96875 C 4.707031 -2.738281 4.945312 -2.5625 5.25 -2.4375 C 5.550781 -2.320312 5.894531 -2.265625 6.28125 -2.265625 Z M 6.28125 -2.265625 "/></g></g></g><g fill="#ffffff" fill-opacity="1"><g transform="translate(150.9303, 23.523087)"><g><path d="M 6.421875 0.234375 C 5.367188 0.234375 4.425781 -0.0351562 3.59375 -0.578125 C 2.769531 -1.117188 2.117188 -1.898438 1.640625 -2.921875 C 1.160156 -3.941406 0.921875 -5.1875 0.921875 -6.65625 C 0.921875 -8.144531 1.164062 -9.394531 1.65625 -10.40625 C 2.144531 -11.425781 2.800781 -12.195312 3.625 -12.71875 C 4.457031 -13.25 5.378906 -13.515625 6.390625 -13.515625 C 7.109375 -13.515625 7.71875 -13.394531 8.21875 -13.15625 C 8.71875 -12.925781 9.128906 -12.632812 9.453125 -12.28125 C 9.785156 -11.925781 10.039062 -11.554688 10.21875 -11.171875 L 10.3125 -11.171875 L 10.3125 -17.984375 L 13.921875 -17.984375 L 13.921875 0 L 10.375 0 L 10.375 -2.109375 L 10.234375 -2.109375 C 10.046875 -1.722656 9.785156 -1.347656 9.453125 -0.984375 C 9.117188 -0.628906 8.703125 -0.335938 8.203125 -0.109375 C 7.710938 0.117188 7.117188 0.234375 6.421875 0.234375 Z M 7.484375 -2.671875 C 8.097656 -2.671875 8.625 -2.835938 9.0625 -3.171875 C 9.5 -3.503906 9.832031 -3.96875 10.0625 -4.5625 C 10.300781 -5.15625 10.421875 -5.851562 10.421875 -6.65625 C 10.421875 -7.46875 10.304688 -8.164062 10.078125 -8.75 C 9.847656 -9.34375 9.507812 -9.800781 9.0625 -10.125 C 8.625 -10.457031 8.097656 -10.625 7.484375 -10.625 C 6.867188 -10.625 6.347656 -10.457031 5.921875 -10.125 C 5.492188 -9.789062 5.164062 -9.328125 4.9375 -8.734375 C 4.71875 -8.140625 4.609375 -7.445312 4.609375 -6.65625 C 4.609375 -5.863281 4.71875 -5.164062 4.9375 -4.5625 C 5.164062 -3.96875 5.492188 -3.503906 5.921875 -3.171875 C 6.347656 -2.835938 6.867188 -2.671875 7.484375 -2.671875 Z M 7.484375 -2.671875 "/></g></g></g></g></g></svg>